# xmcd CD database file
# Generated: Mon Jun 30 20:42:18 2003 by KSCD
# 
# Track frame offsets:
#       150
#       22896
#       55046
#       77379
#       93920
#       123726
#       144419
#       175266
#       191628
#       214499
#       234018
#
# Disc length: 3459 seconds
#
# Revision: 1
# Processed by: cddbd v1.4PL0 Copyright (c) Steve Scherf et al.
# Submitted via: Kscd 1.3.3
#
DISCID=880d810b
DTITLE=bernhard egger blues band - BEBB LIVE
DYEAR=1900
DGENRE=
TTITLE0=Morning grey blues
TTITLE1=Hard to handle
TTITLE2=Getting thrilled
TTITLE3=Come together
TTITLE4=Good morning Mr. Blues
TTITLE5=Gangster of love
TTITLE6=The golden teeth of Mr. Ed. B.
TTITLE7=I feel so good
TTITLE8=Bilbo?s last song
TTITLE9=Lost friends (Funk Version)
TTITLE10=I loved another women
EXTD=Blues from Austria (Heidenreichstein)
EXTT0=
EXTT1=
EXTT2=
EXTT3=
EXTT4=
EXTT5=
EXTT6=
EXTT7=
EXTT8=
EXTT9=
EXTT10=
PLAYORDER=
